<svg width="60" height="47" viewBox="0 0 60 47" fill="none" xmlns="http://www.w3.org/2000/svg">
<path d="M0.53125 0.890625C1.57812 1.01563 2.48438 1.10938 3.25 1.17188C4.01562 1.21875 4.64844 1.25781 5.14844 1.28906C5.72656 1.32031 6.21094 1.32812 6.60156 1.3125C7.00781 1.29688 7.5625 1.25781 8.26562 1.19531C8.85938 1.14844 9.64062 1.08594 10.6094 1.00781C11.5781 0.914062 12.7891 0.789062 14.2422 0.632812C14.2578 0.992188 14.2656 1.34375 14.2656 1.6875C14.2812 2.01562 14.2969 2.30469 14.3125 2.55469C14.3281 2.85156 14.3359 3.125 14.3359 3.375C14.3359 3.64062 14.3203 3.97656 14.2891 4.38281C14.2578 4.72656 14.2031 5.16406 14.125 5.69531C14.0625 6.21094 13.9609 6.82812 13.8203 7.54688C13.6016 6.70312 13.3906 6.02344 13.1875 5.50781C12.9844 4.97656 12.7969 4.55469 12.625 4.24219C12.4375 3.88281 12.25 3.60938 12.0625 3.42188C11.8594 3.28125 11.6172 3.16406 11.3359 3.07031C11.0859 2.99219 10.7656 2.92969 10.375 2.88281C10 2.83594 9.55469 2.84375 9.03906 2.90625C8.96094 4.96875 8.90625 6.64062 8.875 7.92188C8.84375 9.20312 8.82031 10.2031 8.80469 10.9219C8.78906 11.7812 8.78125 12.3984 8.78125 12.7734C8.79688 13.3047 8.88281 13.8281 9.03906 14.3438C9.16406 14.7812 9.36719 15.2344 9.64844 15.7031C9.92969 16.1719 10.3359 16.5859 10.8672 16.9453H8.00781C7.74219 16.9453 7.41406 16.9609 7.02344 16.9922C6.69531 17.0234 6.27344 17.0547 5.75781 17.0859C5.25781 17.1172 4.67188 17.1719 4 17.25C4.23438 16.8438 4.42188 16.4766 4.5625 16.1484C4.70312 15.8203 4.8125 15.5391 4.89062 15.3047C4.98438 15.0234 5.05469 14.7734 5.10156 14.5547C5.11719 14.2422 5.15625 13.6094 5.21875 12.6562C5.23438 12.2656 5.25 11.7812 5.26562 11.2031C5.29688 10.625 5.32812 9.9375 5.35938 9.14062C5.40625 8.34375 5.44531 7.42969 5.47656 6.39844C5.52344 5.35156 5.57031 4.17188 5.61719 2.85938C5.33594 2.78125 5.07031 2.78906 4.82031 2.88281C4.57031 2.96094 4.35156 3.0625 4.16406 3.1875C3.94531 3.34375 3.73438 3.53125 3.53125 3.75C3.32812 4.01562 3.10156 4.35938 2.85156 4.78125C2.63281 5.14062 2.38281 5.61719 2.10156 6.21094C1.82031 6.78906 1.5 7.50781 1.14062 8.36719C1.0625 7.46094 1.00781 6.71875 0.976562 6.14062C0.945312 5.54688 0.921875 5.08594 0.90625 4.75781C0.890625 4.36719 0.882812 4.07812 0.882812 3.89062C0.882812 3.71875 0.867188 3.49219 0.835938 3.21094C0.804688 2.97656 0.765625 2.67188 0.71875 2.29688C0.671875 1.90625 0.609375 1.4375 0.53125 0.890625ZM18.5781 7.5C18.9844 7.5 19.4062 7.57812 19.8438 7.73438C20.2812 7.875 20.7031 8.0625 21.1094 8.29688C21.5156 8.51562 21.8828 8.75781 22.2109 9.02344C22.5547 9.27344 22.8359 9.51562 23.0547 9.75C23.4453 10.1719 23.7109 10.7422 23.8516 11.4609C24.0078 12.1641 24.0391 12.8906 23.9453 13.6406C23.8516 14.375 23.6328 15.0703 23.2891 15.7266C22.9453 16.3828 22.4688 16.8672 21.8594 17.1797C21.4219 17.3984 20.9922 17.5703 20.5703 17.6953C20.1484 17.8203 19.7422 17.9141 19.3516 17.9766C18.9609 18.0391 18.5938 18.0703 18.25 18.0703C17.9062 18.0703 17.6094 18.0625 17.3594 18.0469C16.8906 18.0156 16.3984 17.8516 15.8828 17.5547C15.3828 17.2578 14.9062 16.8906 14.4531 16.4531C14.0156 16.0156 13.6406 15.5391 13.3281 15.0234C13.0156 14.4922 12.8281 13.9922 12.7656 13.5234C12.6719 12.8828 12.6562 12.2109 12.7188 11.5078C12.7812 10.8047 13.0078 10.1562 13.3984 9.5625C13.8047 8.96875 14.4141 8.47656 15.2266 8.08594C16.0547 7.69531 17.1719 7.5 18.5781 7.5ZM17.8047 16.5938C17.9766 16.625 18.2109 16.5859 18.5078 16.4766C18.8047 16.3516 19.0938 16.1562 19.375 15.8906C19.6719 15.625 19.9297 15.2891 20.1484 14.8828C20.3828 14.4609 20.5234 13.9531 20.5703 13.3594C20.6172 12.7812 20.6172 12.25 20.5703 11.7656C20.5391 11.2812 20.4688 10.8594 20.3594 10.5C20.25 10.125 20.125 9.82031 19.9844 9.58594C19.8438 9.35156 19.6953 9.1875 19.5391 9.09375C19.2734 8.95312 18.9531 8.84375 18.5781 8.76562C18.2031 8.67188 17.8828 8.6875 17.6172 8.8125C17.4922 8.875 17.3359 9.00781 17.1484 9.21094C16.9609 9.41406 16.7734 9.67188 16.5859 9.98438C16.3984 10.2812 16.2266 10.625 16.0703 11.0156C15.9297 11.4062 15.8281 11.8125 15.7656 12.2344C15.7031 12.6562 15.6875 13.1094 15.7188 13.5938C15.7656 14.0781 15.8672 14.5391 16.0234 14.9766C16.1797 15.3984 16.3984 15.7656 16.6797 16.0781C16.9766 16.375 17.3516 16.5469 17.8047 16.5938ZM31.9141 1.28906C32.4609 1.36719 32.9375 1.42969 33.3438 1.47656C33.75 1.52344 34.0859 1.5625 34.3516 1.59375C34.6641 1.625 34.9297 1.64844 35.1484 1.66406C35.3984 1.69531 35.7031 1.67969 36.0625 1.61719C36.4375 1.55469 36.8359 1.49219 37.2578 1.42969C37.6797 1.35156 38.1172 1.28906 38.5703 1.24219C39.0234 1.19531 39.4609 1.19531 39.8828 1.24219C40.1641 1.27344 40.5234 1.33594 40.9609 1.42969C41.3984 1.52344 41.8594 1.67188 42.3438 1.875C42.8438 2.07812 43.3438 2.34375 43.8438 2.67188C44.3438 3 44.7969 3.41406 45.2031 3.91406C45.6094 4.41406 45.9453 5.00781 46.2109 5.69531C46.4766 6.38281 46.625 7.1875 46.6562 8.10938C46.7031 9.48438 46.5781 10.7344 46.2812 11.8594C45.9844 12.9844 45.5234 13.9453 44.8984 14.7422C44.2891 15.5391 43.5156 16.1641 42.5781 16.6172C41.6406 17.0703 40.5469 17.3203 39.2969 17.3672C38.3438 17.4453 37.4062 17.5156 36.4844 17.5781C36.0938 17.6094 35.6797 17.6328 35.2422 17.6484C34.8203 17.6641 34.3984 17.6797 33.9766 17.6953C33.5547 17.6953 33.1484 17.6875 32.7578 17.6719C32.3672 17.6562 32.0078 17.6328 31.6797 17.6016C32.0391 17.4297 32.3281 17.2578 32.5469 17.0859C32.7812 16.9141 32.9609 16.7656 33.0859 16.6406C33.2266 16.4844 33.3281 16.3438 33.3906 16.2188C33.4219 16.0469 33.4688 15.7109 33.5312 15.2109C33.5781 14.7891 33.6406 14.1875 33.7188 13.4062C33.7969 12.625 33.8906 11.5625 34 10.2188L34.1406 8.55469C34.2188 7.52344 34.25 6.67969 34.2344 6.02344C34.2344 5.36719 34.2188 4.85156 34.1875 4.47656C34.1406 4.03906 34.0781 3.71875 34 3.51562C33.9375 3.34375 33.8203 3.14062 33.6484 2.90625C33.4922 2.71875 33.2734 2.49219 32.9922 2.22656C32.7266 1.94531 32.3672 1.63281 31.9141 1.28906ZM36.8594 9.91406C36.8906 11.3047 36.9609 12.375 37.0703 13.125C37.1953 13.8594 37.3281 14.4062 37.4688 14.7656C37.6406 15.1719 37.8281 15.4141 38.0312 15.4922C38.3281 15.4922 38.6641 15.3672 39.0391 15.1172C39.4141 14.8516 39.7812 14.4531 40.1406 13.9219C40.5156 13.3906 40.8516 12.7266 41.1484 11.9297C41.4609 11.1328 41.6875 10.2031 41.8281 9.14062C41.9688 8.07812 41.9297 7.14062 41.7109 6.32812C41.4922 5.51562 41.2031 4.83594 40.8438 4.28906C40.4844 3.72656 40.1172 3.30469 39.7422 3.02344C39.3672 2.72656 39.0859 2.57812 38.8984 2.57812C38.6797 2.57812 38.4844 2.64062 38.3125 2.76562C38.1406 2.875 37.8984 3.13281 37.5859 3.53906C37.4297 3.75781 37.2891 4.07031 37.1641 4.47656C37.0547 4.83594 36.9609 5.3125 36.8828 5.90625C36.8047 6.5 36.7812 7.26562 36.8125 8.20312L36.8594 9.91406ZM53.7812 7.5C54.1875 7.5 54.6094 7.57812 55.0469 7.73438C55.4844 7.875 55.9062 8.0625 56.3125 8.29688C56.7188 8.51562 57.0859 8.75781 57.4141 9.02344C57.7578 9.27344 58.0391 9.51562 58.2578 9.75C58.6484 10.1719 58.9141 10.7422 59.0547 11.4609C59.2109 12.1641 59.2422 12.8906 59.1484 13.6406C59.0547 14.375 58.8359 15.0703 58.4922 15.7266C58.1484 16.3828 57.6719 16.8672 57.0625 17.1797C56.625 17.3984 56.1953 17.5703 55.7734 17.6953C55.3516 17.8203 54.9453 17.9141 54.5547 17.9766C54.1641 18.0391 53.7969 18.0703 53.4531 18.0703C53.1094 18.0703 52.8125 18.0625 52.5625 18.0469C52.0938 18.0156 51.6016 17.8516 51.0859 17.5547C50.5859 17.2578 50.1094 16.8906 49.6562 16.4531C49.2188 16.0156 48.8438 15.5391 48.5312 15.0234C48.2188 14.4922 48.0312 13.9922 47.9688 13.5234C47.875 12.8828 47.8594 12.2109 47.9219 11.5078C47.9844 10.8047 48.2109 10.1562 48.6016 9.5625C49.0078 8.96875 49.6172 8.47656 50.4297 8.08594C51.2578 7.69531 52.375 7.5 53.7812 7.5ZM53.0078 16.5938C53.1797 16.625 53.4141 16.5859 53.7109 16.4766C54.0078 16.3516 54.2969 16.1562 54.5781 15.8906C54.875 15.625 55.1328 15.2891 55.3516 14.8828C55.5859 14.4609 55.7266 13.9531 55.7734 13.3594C55.8203 12.7812 55.8203 12.25 55.7734 11.7656C55.7422 11.2812 55.6719 10.8594 55.5625 10.5C55.4531 10.125 55.3281 9.82031 55.1875 9.58594C55.0469 9.35156 54.8984 9.1875 54.7422 9.09375C54.4766 8.95312 54.1562 8.84375 53.7812 8.76562C53.4062 8.67188 53.0859 8.6875 52.8203 8.8125C52.6953 8.875 52.5391 9.00781 52.3516 9.21094C52.1641 9.41406 51.9766 9.67188 51.7891 9.98438C51.6016 10.2812 51.4297 10.625 51.2734 11.0156C51.1328 11.4062 51.0312 11.8125 50.9688 12.2344C50.9062 12.6562 50.8906 13.1094 50.9219 13.5938C50.9688 14.0781 51.0703 14.5391 51.2266 14.9766C51.3828 15.3984 51.6016 15.7656 51.8828 16.0781C52.1797 16.375 52.5547 16.5469 53.0078 16.5938ZM1.46875 30.0078C1.92188 30.0859 2.32031 30.1406 2.66406 30.1719C3.02344 30.2031 3.32031 30.2266 3.55469 30.2422C3.83594 30.2578 4.07812 30.2656 4.28125 30.2656C4.48438 30.2656 4.77344 30.25 5.14844 30.2188C5.46094 30.1875 5.86719 30.1484 6.36719 30.1016C6.88281 30.0547 7.51562 29.9766 8.26562 29.8672C8.04688 29.9297 7.84375 30.1094 7.65625 30.4062C7.48438 30.6875 7.32812 30.9922 7.1875 31.3203C7.01562 31.7109 6.86719 32.1406 6.74219 32.6094C6.63281 33.0312 6.49219 33.6094 6.32031 34.3438C6.16406 35.0781 6.00781 35.875 5.85156 36.7344C5.71094 37.5938 5.60156 38.4688 5.52344 39.3594C5.44531 40.2344 5.42969 41.0391 5.47656 41.7734C5.53906 42.5078 5.6875 43.1172 5.92188 43.6016C6.15625 44.0703 6.51562 44.3203 7 44.3516C7.73438 44.4141 8.34375 44.4219 8.82812 44.375C9.32812 44.3125 9.73438 44.2266 10.0469 44.1172C10.3594 44.0078 10.6016 43.8828 10.7734 43.7422C10.9453 43.5859 11.0781 43.4375 11.1719 43.2969C11.4219 42.9375 11.6797 42.4766 11.9453 41.9141C12.2109 41.3516 12.4453 40.8125 12.6484 40.2969C12.8672 39.7812 13.0469 39.3438 13.1875 38.9844C13.3281 38.625 13.3984 38.4531 13.3984 38.4688C13.3984 38.5 13.3906 38.6797 13.375 39.0078C13.375 39.3203 13.3672 39.7031 13.3516 40.1562C13.3516 40.5938 13.3438 41.0547 13.3281 41.5391C13.3281 42.0234 13.3203 42.4375 13.3047 42.7812C13.2891 43.0625 13.2734 43.375 13.2578 43.7188C13.2422 44.0156 13.2266 44.3672 13.2109 44.7734C13.2109 45.1797 13.1953 45.625 13.1641 46.1094C12.5078 46.0625 11.8828 46.0312 11.2891 46.0156C10.6953 46 10.1719 45.9922 9.71875 45.9922C9.1875 45.9922 8.69531 46 8.24219 46.0156C7.75781 46.0312 7.19531 46.0547 6.55469 46.0859C6.00781 46.1172 5.32812 46.1562 4.51562 46.2031C3.70312 46.2344 2.76562 46.2812 1.70312 46.3438C1.82812 46.125 1.92969 45.9219 2.00781 45.7344C2.10156 45.5469 2.17188 45.3906 2.21875 45.2656C2.28125 45.1094 2.32031 44.9766 2.33594 44.8672C2.42969 44.3672 2.50781 43.7344 2.57031 42.9688C2.63281 42.1875 2.67969 41.3594 2.71094 40.4844C2.75781 39.6094 2.78125 38.7188 2.78125 37.8125C2.79688 36.8906 2.79688 36.0391 2.78125 35.2578C2.76562 34.4766 2.73438 33.7969 2.6875 33.2188C2.65625 32.6406 2.60938 32.2422 2.54688 32.0234C2.46875 31.7734 2.375 31.5234 2.26562 31.2734C2.17188 31.0547 2.05469 30.8359 1.91406 30.6172C1.78906 30.3828 1.64062 30.1797 1.46875 30.0078ZM14.7109 36.5234L19.0234 36.5703C18.7734 37.5234 18.5859 38.3359 18.4609 39.0078C18.3516 39.6797 18.2812 40.2422 18.25 40.6953C18.1875 41.2109 18.1719 41.6484 18.2031 42.0078C18.25 42.3359 18.3281 42.6875 18.4375 43.0625C18.5312 43.375 18.6719 43.7344 18.8594 44.1406C19.0469 44.5469 19.2969 44.9531 19.6094 45.3594C19.4219 45.2969 19.2188 45.25 19 45.2188C18.7812 45.1875 18.5781 45.1641 18.3906 45.1484C18.1719 45.1328 17.9531 45.1328 17.7344 45.1484C17.5156 45.1641 17.2734 45.1875 17.0078 45.2188C16.7891 45.25 16.5234 45.2891 16.2109 45.3359C15.8984 45.3828 15.5703 45.4453 15.2266 45.5234C15.4609 44.8203 15.6406 44.2109 15.7656 43.6953C15.9062 43.1797 16.0078 42.75 16.0703 42.4062C16.1328 42 16.1719 41.6719 16.1875 41.4219C16.1875 41.1094 16.1875 40.7578 16.1875 40.3672C16.1875 39.9609 16.1875 39.5703 16.1875 39.1953C16.1875 38.8203 16.1797 38.4922 16.1641 38.2109C16.1484 37.9141 16.1172 37.7266 16.0703 37.6484L15.8359 37.4141C15.7422 37.3359 15.6016 37.2266 15.4141 37.0859C15.2422 36.9297 15.0078 36.7422 14.7109 36.5234ZM16.375 32.9141C16.7031 32.7422 17.0312 32.6953 17.3594 32.7734C17.7031 32.8516 17.9688 33 18.1562 33.2188C18.3438 33.4375 18.4062 33.6953 18.3438 33.9922C18.2969 34.2891 18.0469 34.5781 17.5938 34.8594C17.1406 35.125 16.7422 35.2188 16.3984 35.1406C16.0547 35.0625 15.8125 34.8984 15.6719 34.6484C15.5312 34.3984 15.5078 34.1094 15.6016 33.7812C15.6953 33.4375 15.9531 33.1484 16.375 32.9141ZM30.7891 33.6172C30.6484 33.9609 30.5234 34.2734 30.4141 34.5547C30.3203 34.8359 30.2344 35.0859 30.1562 35.3047C30.0781 35.5547 30.0078 35.7734 29.9453 35.9609C29.8828 36.1797 29.8125 36.4297 29.7344 36.7109C29.6562 36.9609 29.5547 37.2734 29.4297 37.6484C29.3203 38.0078 29.1875 38.4375 29.0312 38.9375C28.9062 38.1875 28.6797 37.5938 28.3516 37.1562C28.0234 36.7031 27.6875 36.3516 27.3438 36.1016C26.9375 35.8203 26.5 35.6172 26.0312 35.4922C25.1875 35.3516 24.5781 35.3672 24.2031 35.5391C23.8281 35.7109 23.5781 35.9297 23.4531 36.1953C23.3906 36.3047 23.3203 36.4453 23.2422 36.6172C23.1797 36.7734 23.125 36.9375 23.0781 37.1094C23.0469 37.2812 23.0391 37.4531 23.0547 37.625C23.0703 37.7969 23.1406 37.9375 23.2656 38.0469C23.3438 38.125 23.5469 38.2344 23.875 38.375C24.2031 38.5 24.5938 38.6484 25.0469 38.8203C25.5156 38.9766 26.0078 39.1484 26.5234 39.3359C27.0547 39.5234 27.5547 39.7109 28.0234 39.8984C28.4922 40.0859 28.8984 40.2734 29.2422 40.4609C29.5859 40.6484 29.8125 40.8203 29.9219 40.9766C30.0156 41.1328 30.1172 41.3438 30.2266 41.6094C30.3516 41.8594 30.4375 42.1406 30.4844 42.4531C30.5469 42.75 30.5625 43.0625 30.5312 43.3906C30.5156 43.7031 30.4297 44.0156 30.2734 44.3281C30.1172 44.6406 29.8672 44.9297 29.5234 45.1953C29.1953 45.4609 28.75 45.6797 28.1875 45.8516C27.5312 46.0547 26.8984 46.1094 26.2891 46.0156C25.6797 45.9219 25.1172 45.7812 24.6016 45.5938C24.1016 45.4062 23.6641 45.2266 23.2891 45.0547C22.9141 44.8672 22.6484 44.7891 22.4922 44.8203C22.3203 44.8516 22.125 44.9375 21.9062 45.0781C21.6875 45.2188 21.4766 45.3672 21.2734 45.5234C21.0859 45.6641 20.9219 45.7969 20.7812 45.9219C20.6406 46.0312 20.5703 46.0703 20.5703 46.0391C20.5703 46.0078 20.5938 45.9141 20.6406 45.7578C20.7031 45.6016 20.7656 45.4141 20.8281 45.1953C20.9062 44.9609 20.9766 44.7109 21.0391 44.4453C21.1172 44.1641 21.1719 43.8984 21.2031 43.6484C21.2344 43.4453 21.2734 43.1953 21.3203 42.8984C21.3516 42.6328 21.3906 42.3125 21.4375 41.9375C21.5 41.5469 21.5703 41.0781 21.6484 40.5312C21.7266 40.9375 21.8359 41.2891 21.9766 41.5859C22.1328 41.8828 22.2812 42.1406 22.4219 42.3594C22.5938 42.6094 22.7578 42.8203 22.9141 42.9922C23.1484 43.2109 23.4219 43.4141 23.7344 43.6016C24.0625 43.7891 24.3906 43.9531 24.7188 44.0938C25.0469 44.2188 25.3594 44.2969 25.6562 44.3281C25.9531 44.3594 26.2031 44.3281 26.4062 44.2344C26.6094 44.1406 26.7812 43.9688 26.9219 43.7188C27.0781 43.4688 27.1875 43.1953 27.25 42.8984C27.3125 42.6016 27.3359 42.3203 27.3203 42.0547C27.3047 41.7734 27.2344 41.5469 27.1094 41.375C27.0156 41.2656 26.7969 41.125 26.4531 40.9531C26.125 40.7812 25.7266 40.5938 25.2578 40.3906C24.8047 40.1875 24.3203 39.9766 23.8047 39.7578C23.3047 39.5391 22.8281 39.3203 22.375 39.1016C21.9375 38.8672 21.5703 38.6484 21.2734 38.4453C20.9922 38.2266 20.8359 38.0312 20.8047 37.8594C20.7734 37.6094 20.75 37.3359 20.7344 37.0391C20.7188 36.7266 20.7344 36.4219 20.7812 36.125C20.8438 35.8125 20.9531 35.5156 21.1094 35.2344C21.2812 34.9531 21.5312 34.7188 21.8594 34.5312C22.0781 34.4062 22.3672 34.3125 22.7266 34.25C23.0859 34.1875 23.4844 34.1562 23.9219 34.1562C24.3594 34.1406 24.8125 34.1562 25.2812 34.2031C25.75 34.2344 26.1953 34.2812 26.6172 34.3438C27.0547 34.3906 27.4453 34.4531 27.7891 34.5312C28.1484 34.6094 28.4219 34.6797 28.6094 34.7422C28.8281 34.8203 29.0625 34.8281 29.3125 34.7656C29.5312 34.7188 29.7656 34.6172 30.0156 34.4609C30.2656 34.3047 30.5234 34.0234 30.7891 33.6172ZM31.3516 32.2344C31.8203 32.2812 32.2109 32.3203 32.5234 32.3516C32.8516 32.3828 33.1172 32.4062 33.3203 32.4219C33.5547 32.4375 33.7422 32.4453 33.8828 32.4453C34.0234 32.4609 34.2109 32.4609 34.4453 32.4453C34.6484 32.4297 34.9141 32.4141 35.2422 32.3984C35.5703 32.3672 35.9844 32.3203 36.4844 32.2578C36.375 32.4141 36.2891 32.5547 36.2266 32.6797C36.1641 32.7891 36.1094 32.8906 36.0625 32.9844L35.9219 33.2656C35.8906 33.3594 35.8594 33.4531 35.8281 33.5469C35.7969 33.625 35.7656 33.7188 35.7344 33.8281C35.7188 33.9375 35.7031 34.0547 35.6875 34.1797H39.2969L38.9688 36.0781L35.6641 35.8906C35.5859 36.6875 35.5312 37.3047 35.5 37.7422C35.4688 38.1797 35.4375 38.5 35.4062 38.7031L35.3594 39.125C35.3125 39.7188 35.2656 40.3672 35.2188 41.0703C35.1719 41.7578 35.1562 42.3984 35.1719 42.9922C35.1875 43.5859 35.2422 44.0859 35.3359 44.4922C35.4297 44.8828 35.5938 45.0781 35.8281 45.0781C36.0625 45.0781 36.2812 45.0156 36.4844 44.8906C36.6875 44.7656 36.8594 44.6172 37 44.4453C37.1562 44.2734 37.2734 44.1016 37.3516 43.9297C37.4297 43.7422 37.4688 43.6016 37.4688 43.5078C37.4688 43.4141 37.4453 43.3047 37.3984 43.1797C37.3203 42.9453 37.1797 42.6484 36.9766 42.2891C37.4297 42.3984 37.8281 42.5078 38.1719 42.6172C38.3438 42.6797 38.5 42.7422 38.6406 42.8047C38.7969 42.8672 38.9766 42.9375 39.1797 43.0156C39.3516 43.0938 39.5703 43.1875 39.8359 43.2969C40.1016 43.4062 40.4141 43.5391 40.7734 43.6953C40.4297 43.7578 40.1797 43.8594 40.0234 44C39.9297 44.0625 39.8594 44.1328 39.8125 44.2109C39.7031 44.3828 39.5781 44.6172 39.4375 44.9141C39.2969 45.1953 39.0859 45.4766 38.8047 45.7578C38.5234 46.0391 38.1406 46.2891 37.6562 46.5078C37.1875 46.7266 36.5547 46.8516 35.7578 46.8828C34.9297 46.9141 34.2969 46.7734 33.8594 46.4609C33.4375 46.1484 33.125 45.7891 32.9219 45.3828C32.7344 44.9609 32.625 44.5469 32.5938 44.1406C32.5625 43.7344 32.5391 43.4609 32.5234 43.3203C32.5078 43.1797 32.5078 42.8281 32.5234 42.2656C32.5391 41.7031 32.5625 41.0859 32.5938 40.4141C32.625 39.7266 32.6562 39.0703 32.6875 38.4453C32.7188 37.8047 32.7344 37.3359 32.7344 37.0391C32.7344 36.8828 32.7422 36.7188 32.7578 36.5469C32.7578 36.4062 32.7578 36.2578 32.7578 36.1016C32.7734 35.9297 32.7812 35.7656 32.7812 35.6094L29.3828 35.5859L29.2422 34.25L32.6641 34.3438C32.6328 34.1719 32.5938 34.0156 32.5469 33.875C32.5156 33.7188 32.4844 33.5938 32.4531 33.5C32.4062 33.3906 32.3594 33.2969 32.3125 33.2188C32.25 33.1406 32.1797 33.0547 32.1016 32.9609C32.0234 32.8828 31.9219 32.7812 31.7969 32.6562C31.6719 32.5312 31.5234 32.3906 31.3516 32.2344Z" fill="black"/>
</svg>
